<svg xmlns="http://www.w3.org/2000/svg" width="225.677" height="1090.009" viewBox="0 0 225.677 1090.009">
  <g id="waves" transform="translate(205.38 1090.009) rotate(180)">
    <path id="Trazado_1" data-name="Trazado 1" d="M179.237,0,150.559,90.834C121.856,181.668,64.5,363.336,65.466,545s60.3,363.336,89.949,454.17l29.669,90.834H0V0Z" fill="#136f63"/>
    <path id="Trazado_2" data-name="Trazado 2" d="M77.742,0,93.29,90.834C108.8,181.668,139.9,363.336,164.54,545s42.909,363.336,52,454.17l9.133,90.834H0V0Z" transform="translate(-20.296)" fill="#177d72"/>
    <path id="Trazado_3" data-name="Trazado 3" d="M179.313,0,150.945,90.834c-28.368,90.834-85.1,272.5-81.532,454.171,3.537,181.668,67.418,363.336,99.323,454.17l31.94,90.834H0V0Z" transform="translate(-7.796)" fill="#1b8c81"/>
    <path id="Trazado_4" data-name="Trazado 4" d="M19.748,0,19.09,90.834c-.658,90.834-1.975,272.5,16.983,454.171,18.914,181.668,58.146,363.336,77.719,454.17l19.616,90.834H0V0Z" fill="#1f9b91"/>
    <path id="Trazado_5" data-name="Trazado 5" d="M185,0,158.5,90.834C132,181.668,79,363.336,66,545s14,363.336,27.5,454.17l13.5,90.834H0V0Z" fill="#22aaa1"/>
  </g>
</svg>
