<svg xmlns="http://www.w3.org/2000/svg" width="1920" height="278.56" viewBox="0 0 1920 278.56"><g transform="translate(0 278.56) rotate(-90)"><path d="M269.759,0,226.6,160C183.4,320,97.075,640,98.529,960s90.762,640,135.377,800l44.654,160H0V0Z" fill="#136f63"/><path d="M73.745,0,88.494,160c14.713,160,44.211,480,67.588,800s40.7,640,49.33,800l8.663,160H0V0Z" fill="#177d72"/><path d="M168.947,0,142.219,160C115.491,320,62.035,640,65.4,960c3.333,320,63.52,640,93.581,800l30.094,160H0V0Z" fill="#1b8c81"/><path d="M33.585,0,32.465,160c-1.119,160-3.358,480,28.883,800,32.167,320,98.888,640,132.174,800l33.361,160H0V0Z" fill="#1f9b91"/><path d="M185,0,158.5,160C132,320,79,640,66,960s14,640,27.5,800L107,1920H0V0Z" fill="#22aaa1"/></g></svg>