<svg id="OBJECTS" xmlns="http://www.w3.org/2000/svg" viewBox="0 0 621.33 388.21"><defs><style>.cls-1{fill:#f8e9f6;}.cls-2{fill:#dd4c88;}.cls-10,.cls-13,.cls-15,.cls-16,.cls-17,.cls-19,.cls-20,.cls-22,.cls-23,.cls-3,.cls-8{fill:none;}.cls-10,.cls-23,.cls-3,.cls-8{stroke:#fdfcff;}.cls-13,.cls-22,.cls-3{stroke-linecap:round;stroke-linejoin:round;}.cls-10,.cls-3{stroke-width:1.94px;}.cls-4{fill:#6f59a0;}.cls-5{fill:#fff;}.cls-6{fill:#ab8bdb;}.cls-7{fill:#fafafa;}.cls-10,.cls-15,.cls-16,.cls-17,.cls-19,.cls-20,.cls-23,.cls-8{stroke-miterlimit:10;}.cls-8{stroke-width:1.78px;}.cls-9{fill:#cfbbeb;}.cls-11{fill:#3a1616;}.cls-12{fill:#d6906e;}.cls-13,.cls-22{stroke:#161311;}.cls-13{stroke-width:1.02px;}.cls-14{fill:#1a1a1a;}.cls-15{stroke:#533d85;}.cls-15,.cls-17,.cls-20,.cls-23{stroke-width:1.99px;}.cls-16{stroke:#bf704f;}.cls-16,.cls-19{stroke-width:1px;}.cls-17{stroke:#c12d71;}.cls-18{fill:#e8aba2;}.cls-19{stroke:#d8857d;}.cls-20{stroke:#ab8bdb;}.cls-21{fill:#2f1118;}.cls-22{stroke-width:1.1px;}</style></defs><path class="cls-1" d="M585,302.59c0-118.75-96.26-215-215-215s-215,96.27-215,215a214,214,0,0,0,45.45,132.2H539.58A214.07,214.07,0,0,0,585,302.59Z" transform="translate(-69.16 -48.33)"/><rect class="cls-2" x="96.52" y="18.91" width="82.59" height="26.84" rx="2.55"/><line class="cls-3" x1="108.78" y1="28.12" x2="161.75" y2="28.12"/><line class="cls-3" x1="108.78" y1="35.31" x2="128.37" y2="35.31"/><path class="cls-2" d="M235.13,91.15v9.39a.33.33,0,0,1-.54.26l-12.13-9.65Z" transform="translate(-69.16 -48.33)"/><path class="cls-4" d="M54.09,228.43h55.16a7.05,7.05,0,0,1,7.05,7.05v51.44a7.05,7.05,0,0,1-7.05,7.05H56.34A9.31,9.31,0,0,1,47,284.68V235.49A7.05,7.05,0,0,1,54.09,228.43Z"/><path class="cls-5" d="M161.46,301.89a6.61,6.61,0,0,0-9.35.1l-1.68,1.72L148.7,302a6.61,6.61,0,1,0-9.28,9.42l6.43,6.34,0,0a6.49,6.49,0,0,0,3.61,1.81,6.57,6.57,0,0,0,5.74-1.91l6.32-6.46A6.61,6.61,0,0,0,161.46,301.89Z" transform="translate(-69.16 -48.33)"/><path class="cls-6" d="M484.89,179.18h61.72a7.89,7.89,0,0,1,7.89,7.89v57.56a7.89,7.89,0,0,1-7.89,7.89h-59.2A10.41,10.41,0,0,1,477,242.11v-55A7.89,7.89,0,0,1,484.89,179.18Z"/><path class="cls-7" d="M580.59,275.29c5.47.1,11,.17,16-.18,1.59-.11,3-2.64,1-3.43a3.59,3.59,0,0,0,2-1.74,1.71,1.71,0,0,0-1-2.26c1.9.47,2.65-2.54,1.17-3.51a4.48,4.48,0,0,0,1.6-2.57A2.57,2.57,0,0,0,600.3,259a4.21,4.21,0,0,0-2-.34l-6.82-.05c.61-3.56.8-7.44-1-10.57-.55-.94-2-2.07-3.17-1.34s-.79,2.36-.73,3.43a12,12,0,0,1-6.21,11S580.65,270.48,580.59,275.29Z" transform="translate(-69.16 -48.33)"/><rect class="cls-7" x="501.18" y="212.72" width="8.27" height="14.23"/><circle class="cls-8" cx="490.27" cy="22.48" r="7.05"/><circle class="cls-8" cx="9.1" cy="324.94" r="7.05"/><path class="cls-8" d="M689.6,241.17a4.75,4.75,0,1,1-4.75-4.75A4.75,4.75,0,0,1,689.6,241.17Z" transform="translate(-69.16 -48.33)"/><path class="cls-8" d="M97.73,107.44s-2.38,4,.88,6.38,6.11-2.07,9.74.68.61,6.1.61,6.1" transform="translate(-69.16 -48.33)"/><path class="cls-8" d="M658.29,326s-1.82,5.5,2.8,7.51,6.86-4.16,12-1.8,2.4,7.25,2.4,7.25" transform="translate(-69.16 -48.33)"/><path class="cls-6" d="M109.33,232.94a6.12,6.12,0,1,1-6.11-6.11A6.12,6.12,0,0,1,109.33,232.94Z" transform="translate(-69.16 -48.33)"/><path class="cls-2" d="M630.67,137.43a6.11,6.11,0,1,1-6.11-6.12A6.11,6.11,0,0,1,630.67,137.43Z" transform="translate(-69.16 -48.33)"/><path class="cls-6" d="M619.72,378.15a4.67,4.67,0,1,1-4.66-4.67A4.67,4.67,0,0,1,619.72,378.15Z" transform="translate(-69.16 -48.33)"/><path class="cls-9" d="M332.92,53a4.67,4.67,0,1,1-4.66-4.66A4.67,4.67,0,0,1,332.92,53Z" transform="translate(-69.16 -48.33)"/><line class="cls-3" x1="547.27" y1="149.15" x2="587.77" y2="149.15"/><line class="cls-10" y1="138.07" x2="71.49" y2="138.07"/><line class="cls-3" x1="299.11" y1="4.67" x2="342.1" y2="4.67"/><path class="cls-11" d="M283.32,129.78s-2.82,20.47-27,33.25c-25.79,13.63-7.46,54.62,37.41,56,48.73,1.51,75.34-42.39,38.88-97.39Z" transform="translate(-69.16 -48.33)"/><polygon class="cls-12" points="229.25 145.22 229.51 109.89 251.09 109.89 251.55 145.63 229.25 145.22"/><path class="cls-11" d="M295.94,168.57c-1.15-3.13,7.47,14.49,16.43,13.34,7.67-1,9-14.8,9-14.8s-3.56,5.26-11.66,5.27C300.64,172.39,295.94,168.57,295.94,168.57Z" transform="translate(-69.16 -48.33)"/><path class="cls-11" d="M283.07,138.73c2.75,15.75,11.9,29,26.59,29s24.78-13.11,26.59-29c2.05-18-11.91-28.7-26.59-28.7S280.25,122.55,283.07,138.73Z" transform="translate(-69.16 -48.33)"/><path class="cls-12" d="M286.68,146.94a4.74,4.74,0,0,0-5.86-1.55c-3.95,1.5-2.17,11.09,3.76,12.31a4.64,4.64,0,0,0,3.78-1S286.91,149.63,286.68,146.94Z" transform="translate(-69.16 -48.33)"/><path class="cls-13" d="M281.6,148.78s3.31-1.11,5.65,3.76" transform="translate(-69.16 -48.33)"/><path class="cls-12" d="M332,146.94a4.73,4.73,0,0,1,5.86-1.55c3.95,1.5,2.16,11.09-3.76,12.31a4.66,4.66,0,0,1-3.79-1S331.79,149.63,332,146.94Z" transform="translate(-69.16 -48.33)"/><path class="cls-13" d="M337.1,148.78s-3.31-1.11-5.66,3.76" transform="translate(-69.16 -48.33)"/><path class="cls-12" d="M286.31,138.68c0,6.14.63,17.7,4.61,25.33,3.74,7.17,10.4,10.8,18.51,10.81s15.32-5.44,18.52-11.59c4.84-9.3,4.61-24.44,4.61-24.44s0-21.95-22.88-21.95C285.59,116.84,286.31,138.68,286.31,138.68Z" transform="translate(-69.16 -48.33)"/><path class="cls-14" d="M304.28,137.62l-12.54,3.24s.57-3.52,5.7-4.79S304.28,137.62,304.28,137.62Z" transform="translate(-69.16 -48.33)"/><path class="cls-14" d="M312.26,137.62l12.55,3.24s-.58-3.52-5.71-4.79S312.26,137.62,312.26,137.62Z" transform="translate(-69.16 -48.33)"/><polyline class="cls-13" points="238.39 99.68 237.82 104.16 241.07 104.16"/><path class="cls-5" d="M318.25,156.29H300s.52,6.73,9.09,6.74C317,163.05,318.25,156.29,318.25,156.29Z" transform="translate(-69.16 -48.33)"/><path class="cls-13" d="M301.69,144.82s-3.47-1.76-6.41,0" transform="translate(-69.16 -48.33)"/><path class="cls-13" d="M321.65,144.82s-3.47-1.76-6.41,0" transform="translate(-69.16 -48.33)"/><path class="cls-11" d="M332,146.94s-6.09-12.07-1.84-22.81c0,0,4.24.06,4.09,16.82Z" transform="translate(-69.16 -48.33)"/><path class="cls-11" d="M286.68,146.94s6.07-12.83,1.84-22.81c0,0-4.24.06-4.09,16.82Z" transform="translate(-69.16 -48.33)"/><path class="cls-11" d="M336.45,133.46s-33-2-42.56-15.33c0,0,3.12-8.32,17.82-6S336.45,133.46,336.45,133.46Z" transform="translate(-69.16 -48.33)"/><path class="cls-11" d="M307.41,114.7s-9.34,19.39-22.68,18.74C284.73,133.44,292.06,114.89,307.41,114.7Z" transform="translate(-69.16 -48.33)"/><path class="cls-4" d="M288.32,414.93s9.78-48.57,15.54-61.81a1.39,1.39,0,0,1,2.61.22c1.39,5.05,3.21,19.92,2.4,63.69l0,17.89h38.43l6-43.06c.31-3.3,12.64-57.27-18.36-98.88H274.82s-24.33,41.84-27.68,93c-.75,11.39-1,28.78-2.56,48.93h39.47Z" transform="translate(-69.16 -48.33)"/><line class="cls-15" x1="218.09" y1="296.94" x2="237.84" y2="305.01"/><path class="cls-2" d="M258.93,199.77s-12.6,1.79-21.82,33.35l24.83,14.23,14.65-20.15Z" transform="translate(-69.16 -48.33)"/><path class="cls-12" d="M261.94,247.35s-16.49,25.86-20.4,30.51c-4,4.81-10.18,7.19-15.51,3.86h0a11.12,11.12,0,0,1-4.13-14.22L239,234.08Z" transform="translate(-69.16 -48.33)"/><polygon class="cls-12" points="152.96 151.48 172.7 215.72 151.65 224.88 138.99 152.44 152.96 151.48"/><path class="cls-12" d="M220.76,203l3.09-3a13,13,0,0,0,3.94-8.22l.79-8.72s.51-4.58-8.62-3.43-9.67,1.21-9.56,3.91c0,0,1.67,3.76,7.55,4.52Z" transform="translate(-69.16 -48.33)"/><path class="cls-12" d="M209.21,204.34s-9-5-9.43-20.78a5.28,5.28,0,0,1,2.37-4.54c2.34-1.54,9.08-5.41,12.69-2.93l6.33,8.16L220.76,203Z" transform="translate(-69.16 -48.33)"/><path class="cls-12" d="M222.49,181.5l5-25.43a2.82,2.82,0,0,0-2.18-3.31h0a2.84,2.84,0,0,0-3.35,2.13l-4.44,19.23-2.13.41-7.37-19.46a2.57,2.57,0,0,0-3.41-1.46h0a2.59,2.59,0,0,0-1.48,3l7.24,26.93Z" transform="translate(-69.16 -48.33)"/><path class="cls-16" d="M222.89,179.48s-12.39-1.18-12.49,4.1c0,0-.27,4,7.55,4.52a7.36,7.36,0,0,0-5.07,6.83" transform="translate(-69.16 -48.33)"/><line class="cls-16" x1="165.88" y1="193.52" x2="171.12" y2="210.58"/><path class="cls-12" d="M343.56,236.63s19.61,69,27.12,126.77l12.64-2.4s-1.93-84.69-14.68-137.08Z" transform="translate(-69.16 -48.33)"/><path class="cls-12" d="M383.22,358.11s19,28.07-3.81,40.69a3.63,3.63,0,0,1-4.51-.81l-.15-.18a3.63,3.63,0,0,1,.24-4.91c3.24-3.29,7.6-10.1.65-19,0,0-3.64.93-3,8.17a3,3,0,0,1-3.26,3.26h0a3,3,0,0,1-2.62-2.27c-1.2-4.77-3.18-16.61,4.46-23Z" transform="translate(-69.16 -48.33)"/><path class="cls-2" d="M355.64,205.52s18,5.92,21.21,34.36L347.54,251l-6.61-18Z" transform="translate(-69.16 -48.33)"/><polygon class="cls-2" points="269.16 150.61 286.77 157.26 265.82 236.5 205.65 236.5 189.77 151.44 210.63 146.6 269.16 150.61"/><rect class="cls-14" x="205.65" y="236.5" width="60.16" height="8.15"/><line class="cls-17" x1="197.45" y1="192.59" x2="192.77" y2="171.41"/><line class="cls-17" x1="276.28" y1="196.94" x2="282.6" y2="173.34"/><path class="cls-12" d="M315.17,189.7l23.15,9.24s-2.69,9.11-29.86,9.11c-23.68,0-28.67-13.12-28.67-13.12l22.49-5.23Z" transform="translate(-69.16 -48.33)"/><polygon class="cls-2" points="397.73 258.34 422.91 387.14 374.1 387.14 355.38 302.02 351.07 301.76 351.01 387.14 302.33 387.14 304.82 258.34 397.73 258.34"/><line class="cls-17" x1="342.83" y1="301.16" x2="370.62" y2="301.16"/><path class="cls-18" d="M489.33,216.26l45.93-11.74a17.44,17.44,0,0,0,12.17-21.19h0a17.44,17.44,0,0,0-21.65-12.4l-46,13.06Z" transform="translate(-69.16 -48.33)"/><polygon class="cls-9" points="425.22 127.3 380.36 133.2 393.19 178.99 436.04 170.07 425.22 127.3"/><path class="cls-18" d="M515.81,118.6c1.15-7.2-1.65-16.4-1.65-16.4l1-16.15a3,3,0,0,0-2.29-3.33h0a3,3,0,0,0-3.65,2.19L507.9,95.35l-1.43,0-1.94-16.77a3.45,3.45,0,0,0-4-3.14h0a3.44,3.44,0,0,0-2.83,3.48L498.93,97l-1.47.29-5.14-18.09a3.82,3.82,0,0,0-4.82-2.66h0a3.82,3.82,0,0,0-2.57,4.51l5.31,20.71-1.86.51-7-14.55a3.17,3.17,0,0,0-4.5-1.33h0a3.16,3.16,0,0,0-1.34,3.76l7.07,19.35-5.85-.15a4.63,4.63,0,0,0-4.59,5.11h0a4.64,4.64,0,0,0,3.43,4l7.7,1.86a32.49,32.49,0,0,0,13.82,10.35S514.93,124.1,515.81,118.6Z" transform="translate(-69.16 -48.33)"/><path class="cls-19" d="M482.64,109.54s11.17-.65,17.8,5.64" transform="translate(-69.16 -48.33)"/><polygon class="cls-18" points="477.66 133.1 446.64 70.28 427.07 78.51 446.79 147.63 477.66 133.1"/><line class="cls-19" x1="440.92" y1="127.05" x2="443.96" y2="137.7"/><polygon class="cls-9" points="340.26 130.71 303.53 138.31 304.82 258.34 397.73 258.34 400.64 135.02 365.69 132 340.26 130.71"/><line class="cls-20" x1="399.61" y1="177.69" x2="399.61" y2="162.19"/><path class="cls-6" d="M317,166.54h22.75a0,0,0,0,1,0,0v11.38a11.38,11.38,0,0,1-11.38,11.38h0A11.38,11.38,0,0,1,317,177.92V166.54A0,0,0,0,1,317,166.54Z"/><path class="cls-18" d="M346.06,217.14l-26.49,48a17.61,17.61,0,0,0,6.61,23.76h0A17.61,17.61,0,0,0,349.9,283l27.5-43.88Z" transform="translate(-69.16 -48.33)"/><path class="cls-9" d="M337.85,223.82l38,24.38,6.1-29.12c6.43-10.39,14.61-22.92,4.32-29.51h0a22.36,22.36,0,0,0-30.92,6.8Z" transform="translate(-69.16 -48.33)"/><line class="cls-20" x1="304.19" y1="198.27" x2="304.19" y2="165.64"/><polygon class="cls-18" points="263.44 242.74 332.98 240.83 337.77 218.36 259.16 208.42 263.44 242.74"/><line class="cls-19" x1="294.39" y1="212.85" x2="276.28" y2="210.58"/><path class="cls-18" d="M402.31,267.61s8.9-12,19.37-.05l-4.16,8.27Z" transform="translate(-69.16 -48.33)"/><path class="cls-14" d="M412.79,254.85,410,271.69l21.21,2.36,3.37-16.17a3,3,0,0,0-2.61-3.64l-15.86-1.91A3,3,0,0,0,412.79,254.85Z" transform="translate(-69.16 -48.33)"/><path class="cls-18" d="M406.79,266.17l25.11.63a5.36,5.36,0,0,1,5.23,5.36h0a5.36,5.36,0,0,1-3,4.83l-1.35.65s2.57,19-12.52,21.27-23.54-9.65-23.54-9.65Z" transform="translate(-69.16 -48.33)"/><polygon class="cls-18" points="367.08 132.05 366.73 94.14 339.21 94.14 338.59 131.06 367.08 132.05"/><path class="cls-11" d="M406.1,153.54c-1.43-3.28,9.56,18.13,20.78,16.92,9.62-1,10-18.45,10-18.45s-3.41,5.5-13.57,5.52C412,157.54,406.1,153.54,406.1,153.54Z" transform="translate(-69.16 -48.33)"/><path class="cls-21" d="M450.55,121.56c-2.95,16.9-12.77,31.12-28.52,31.12s-26.59-14.05-28.53-31.12C391.3,102.2,406.27,89.34,422,89.34S453.58,104.21,450.55,121.56Z" transform="translate(-69.16 -48.33)"/><path class="cls-18" d="M446.68,130.37a5.08,5.08,0,0,1,6.29-1.66c4.24,1.61,2.32,11.9-4,13.21a5.06,5.06,0,0,1-4.07-1.07S446.43,133.26,446.68,130.37Z" transform="translate(-69.16 -48.33)"/><path class="cls-22" d="M452.13,132.34s-3.55-1.18-6.07,4" transform="translate(-69.16 -48.33)"/><path class="cls-18" d="M398,130.37a5.09,5.09,0,0,0-6.29-1.66c-4.24,1.61-2.32,11.9,4,13.21a5,5,0,0,0,4.06-1.07S398.28,133.26,398,130.37Z" transform="translate(-69.16 -48.33)"/><path class="cls-22" d="M392.59,132.34s3.55-1.18,6.06,4" transform="translate(-69.16 -48.33)"/><path class="cls-18" d="M447.08,121.51c0,6.59-.68,20.38-4.95,28.57-4,7.69-10.65,11.82-19.35,12.07-6.94.19-16.94-6.31-20.38-12.91-5.19-10-4.94-27.61-4.94-27.61s0-23.55,24.54-23.55C447.85,98.08,447.08,121.51,447.08,121.51Z" transform="translate(-69.16 -48.33)"/><path class="cls-14" d="M413.69,129.49a1.9,1.9,0,1,1-1.89-1.89A1.9,1.9,0,0,1,413.69,129.49Z" transform="translate(-69.16 -48.33)"/><path class="cls-14" d="M433.29,129.49a1.9,1.9,0,1,1-1.89-1.89A1.9,1.9,0,0,1,433.29,129.49Z" transform="translate(-69.16 -48.33)"/><path class="cls-14" d="M416.93,121.77l-13.46,3.48s.61-3.78,6.12-5.15S416.93,121.77,416.93,121.77Z" transform="translate(-69.16 -48.33)"/><path class="cls-14" d="M425.48,121.77l13.46,3.48s-.61-3.78-6.11-5.15S425.48,121.77,425.48,121.77Z" transform="translate(-69.16 -48.33)"/><polyline class="cls-22" points="350.66 85.98 350.66 90.79 354.15 90.79"/><path class="cls-5" d="M432.57,143.16H412s.57,5.42,9.76,5.44C430.21,148.61,432.57,143.16,432.57,143.16Z" transform="translate(-69.16 -48.33)"/><path class="cls-21" d="M398,130.37s9.18-14.1,2-24.47c0,0-4.55.07-4.39,18Z" transform="translate(-69.16 -48.33)"/><path class="cls-21" d="M446.68,130.37s-9.19-14.1-2-24.47c0,0,4.54.07,4.38,18Z" transform="translate(-69.16 -48.33)"/><path class="cls-21" d="M397.56,105.22s11.86,13.42,36.31,10.79c21.83-2.35,23.72-17.65,18.52-23.71-7.43-8.64-23.81-5.43-32.57,4.23Z" transform="translate(-69.16 -48.33)"/><polygon class="cls-18" points="338.59 131.06 353.11 149.72 367.08 132.05 338.59 131.06"/><polygon class="cls-6" points="338.59 128.43 330.03 132.83 339.71 152.23 349.38 144.93 338.59 128.43"/><polygon class="cls-6" points="367.15 128.43 376.79 132.96 366.6 152.23 357 144.72 367.15 128.43"/><line class="cls-23" x1="26.14" y1="387.21" x2="579.7" y2="387.21"/></svg>